<?xml version="1.0" encoding="UTF-8" standalone="no"?>
<!DOCTYPE svg PUBLIC "-//W3C//DTD SVG 1.1//EN" "http://www.w3.org/Graphics/SVG/1.1/DTD/svg11.dtd">
<svg width="100%" height="100%" viewBox="0 0 125 125" version="1.1" xmlns="http://www.w3.org/2000/svg" xmlns:xlink="http://www.w3.org/1999/xlink" xml:space="preserve" xmlns:serif="http://www.serif.com/" style="fill-rule:evenodd;clip-rule:evenodd;stroke-linejoin:round;stroke-miterlimit:2;">
    <g id="Guides">
    </g>
    <g id="Symbols" transform="matrix(1,0,0,1,-1587.5,-1037.5)">
        <g transform="matrix(2.10889,0,0,2.10889,-1205.65,743.67)">
            <circle cx="1354.1" cy="168.966" r="29.542" style="fill:rgb(25,21,20);"/>
        </g>
        <g transform="matrix(1,0,0,1,1601.29,1138.33)">
            <path d="M29.443,-35.205C40.137,-35.205 49.17,-44.141 49.17,-54.932C49.17,-65.723 40.234,-74.609 29.443,-74.609C18.652,-74.609 9.766,-65.723 9.766,-54.932C9.766,-44.092 18.652,-35.205 29.443,-35.205ZM58.398,-62.158L84.277,-62.158C86.133,-62.158 87.647,-63.574 87.647,-65.43C87.647,-67.285 86.133,-68.701 84.277,-68.701L58.398,-68.701C56.543,-68.701 55.078,-67.285 55.078,-65.43C55.078,-63.574 56.543,-62.158 58.398,-62.158ZM22.266,-43.603C21.631,-43.603 20.996,-43.897 20.996,-44.678C20.996,-45.02 21.045,-45.215 21.094,-45.361L23.535,-52.783L17.139,-57.471C16.797,-57.715 16.455,-58.154 16.455,-58.594C16.455,-59.424 17.041,-59.717 17.822,-59.717L25.732,-59.717L28.174,-67.236C28.418,-67.969 28.906,-68.213 29.443,-68.213C29.981,-68.213 30.469,-67.969 30.713,-67.236L33.154,-59.717L41.065,-59.717C41.846,-59.717 42.432,-59.424 42.432,-58.594C42.432,-58.154 42.09,-57.715 41.748,-57.471L35.352,-52.783L37.793,-45.361C37.842,-45.215 37.94,-44.971 37.94,-44.824C37.94,-44.092 37.305,-43.603 36.621,-43.603C36.328,-43.603 36.084,-43.603 35.84,-43.799L29.443,-48.438L23.047,-43.799C22.852,-43.652 22.559,-43.603 22.266,-43.603ZM58.398,-42.09L84.277,-42.09C86.133,-42.09 87.647,-43.555 87.647,-45.41C87.647,-47.217 86.133,-48.682 84.277,-48.682L58.398,-48.682C56.543,-48.682 55.078,-47.217 55.078,-45.41C55.078,-43.555 56.543,-42.09 58.398,-42.09ZM13.037,-22.07L84.277,-22.07C86.133,-22.07 87.647,-23.535 87.647,-25.391C87.647,-27.197 86.133,-28.662 84.277,-28.662L13.037,-28.662C11.23,-28.662 9.766,-27.197 9.766,-25.391C9.766,-23.535 11.23,-22.07 13.037,-22.07ZM13.037,-2.051L84.277,-2.051C86.133,-2.051 87.647,-3.516 87.647,-5.371C87.647,-7.178 86.133,-8.643 84.277,-8.643L13.037,-8.643C11.23,-8.643 9.766,-7.178 9.766,-5.371C9.766,-3.516 11.23,-2.051 13.037,-2.051Z" style="fill:rgb(64,203,89);fill-rule:nonzero;"/>
        </g>
        <g transform="matrix(1.079,0,0,1.17699,105.116,891.014)">
            <ellipse cx="1413.81" cy="162.735" rx="15.842" ry="13.546" style="fill:rgb(64,203,89);"/>
        </g>
        <g id="Regular-S" transform="matrix(0.211181,0,0,0.211181,1613.27,1090.38)">
            <path d="M81.982,-35.693C90.137,-35.693 97.363,-43.066 97.363,-52.686C97.363,-62.256 90.137,-69.19 81.982,-69.19C73.828,-69.19 66.553,-62.06 66.553,-52.588C66.553,-43.066 73.779,-35.693 81.982,-35.693ZM37.891,-34.815C45.02,-34.815 51.318,-41.26 51.318,-49.609C51.318,-57.959 45.02,-63.965 37.891,-63.965C30.811,-63.965 24.463,-57.813 24.463,-49.512C24.463,-41.26 30.811,-34.815 37.891,-34.815ZM125.977,-34.815C133.105,-34.815 139.453,-41.26 139.453,-49.512C139.453,-57.813 133.105,-63.965 125.977,-63.965C118.896,-63.965 112.598,-57.959 112.598,-49.609C112.598,-41.26 118.896,-34.815 125.977,-34.815ZM16.895,-0.049L44.873,-0.049C40.967,-6.543 46.289,-18.164 54.443,-24.316C50.195,-27.002 44.824,-28.955 37.891,-28.955C20.606,-28.955 9.766,-16.064 9.766,-5.566C9.766,-2.1 11.67,-0.049 16.895,-0.049ZM147.021,-0.049C152.246,-0.049 154.15,-2.1 154.15,-5.566C154.15,-16.064 143.311,-28.955 126.025,-28.955C119.092,-28.955 113.721,-27.002 109.424,-24.316C117.627,-18.164 122.949,-6.543 119.043,-0.049L147.021,-0.049ZM58.35,-0.049L105.566,-0.049C112.109,-0.049 114.258,-1.904 114.258,-5.273C114.258,-15.185 101.855,-28.857 81.982,-28.857C62.06,-28.857 49.658,-15.185 49.658,-5.273C49.658,-1.904 51.807,-0.049 58.35,-0.049Z" style="fill:rgb(25,21,20);fill-rule:nonzero;"/>
        </g>
    </g>
    <g id="Notes">
    </g>
</svg>
