<?xml version="1.0" encoding="UTF-8"?>
<svg xmlns="http://www.w3.org/2000/svg" xmlns:xlink="http://www.w3.org/1999/xlink" width="38pt" height="38pt" viewBox="0 0 38 38" version="1.1">
<g id="surface1">
<path style=" stroke:none;fill-rule:evenodd;fill:rgb(9.803922%,8.235294%,7.843137%);fill-opacity:1;" d="M 37.636719 18.847656 C 37.636719 29.226562 29.226562 37.640625 18.847656 37.640625 C 8.46875 37.640625 0.0585938 29.226562 0.0585938 18.847656 C 0.0585938 8.472656 8.46875 0.0585938 18.847656 0.0585938 C 29.226562 0.0585938 37.636719 8.472656 37.636719 18.847656 Z M 37.636719 18.847656 "/>
<path style=" stroke:none;fill-rule:nonzero;fill:rgb(25.098039%,79.607843%,34.901961%);fill-opacity:1;" d="M 13.039062 19.792969 C 16.261719 19.792969 18.988281 17.097656 18.988281 13.84375 C 18.988281 10.589844 16.292969 7.90625 13.039062 7.90625 C 9.785156 7.90625 7.105469 10.589844 7.105469 13.84375 C 7.105469 17.113281 9.785156 19.792969 13.039062 19.792969 Z M 21.769531 11.664062 L 29.574219 11.664062 C 30.136719 11.664062 30.589844 11.234375 30.589844 10.675781 C 30.589844 10.117188 30.136719 9.691406 29.574219 9.691406 L 21.769531 9.691406 C 21.210938 9.691406 20.769531 10.117188 20.769531 10.675781 C 20.769531 11.234375 21.210938 11.664062 21.769531 11.664062 Z M 10.875 17.257812 C 10.683594 17.257812 10.492188 17.171875 10.492188 16.933594 C 10.492188 16.832031 10.503906 16.773438 10.519531 16.730469 L 11.257812 14.492188 L 9.328125 13.078125 C 9.222656 13.003906 9.121094 12.871094 9.121094 12.738281 C 9.121094 12.488281 9.296875 12.398438 9.535156 12.398438 L 11.917969 12.398438 L 12.65625 10.132812 C 12.730469 9.910156 12.875 9.835938 13.039062 9.835938 C 13.199219 9.835938 13.347656 9.910156 13.421875 10.132812 L 14.15625 12.398438 L 16.542969 12.398438 C 16.777344 12.398438 16.957031 12.488281 16.957031 12.738281 C 16.957031 12.871094 16.851562 13.003906 16.75 13.078125 L 14.820312 14.492188 L 15.554688 16.730469 C 15.570312 16.773438 15.601562 16.847656 15.601562 16.890625 C 15.601562 17.113281 15.410156 17.257812 15.203125 17.257812 C 15.113281 17.257812 15.042969 17.257812 14.96875 17.199219 L 13.039062 15.800781 L 11.109375 17.199219 C 11.050781 17.242188 10.960938 17.257812 10.875 17.257812 Z M 21.769531 17.714844 L 29.574219 17.714844 C 30.136719 17.714844 30.589844 17.273438 30.589844 16.714844 C 30.589844 16.167969 30.136719 15.726562 29.574219 15.726562 L 21.769531 15.726562 C 21.210938 15.726562 20.769531 16.167969 20.769531 16.714844 C 20.769531 17.273438 21.210938 17.714844 21.769531 17.714844 Z M 8.089844 23.753906 L 29.574219 23.753906 C 30.136719 23.753906 30.589844 23.3125 30.589844 22.75 C 30.589844 22.207031 30.136719 21.765625 29.574219 21.765625 L 8.089844 21.765625 C 7.546875 21.765625 7.105469 22.207031 7.105469 22.75 C 7.105469 23.3125 7.546875 23.753906 8.089844 23.753906 Z M 8.089844 29.789062 L 29.574219 29.789062 C 30.136719 29.789062 30.589844 29.347656 30.589844 28.789062 C 30.589844 28.246094 30.136719 27.800781 29.574219 27.800781 L 8.089844 27.800781 C 7.546875 27.800781 7.105469 28.246094 7.105469 28.789062 C 7.105469 29.347656 7.546875 29.789062 8.089844 29.789062 Z M 8.089844 29.789062 "/>
<path style=" stroke:none;fill-rule:evenodd;fill:rgb(25.098039%,79.607843%,34.901961%);fill-opacity:1;" d="M 18.160156 13.585938 C 18.160156 10.933594 15.851562 8.78125 13.003906 8.78125 C 10.15625 8.78125 7.847656 10.933594 7.847656 13.585938 C 7.847656 16.242188 10.15625 18.394531 13.003906 18.394531 C 15.851562 18.394531 18.160156 16.242188 18.160156 13.585938 Z M 18.160156 13.585938 "/>
<path style=" stroke:none;fill-rule:nonzero;fill:rgb(9.803922%,8.235294%,7.843137%);fill-opacity:1;" d="M 12.996094 13.675781 C 13.511719 13.675781 13.972656 13.207031 13.972656 12.59375 C 13.972656 11.984375 13.511719 11.542969 12.996094 11.542969 C 12.472656 11.542969 12.011719 11.996094 12.011719 12.597656 C 12.011719 13.207031 12.46875 13.675781 12.996094 13.675781 Z M 10.183594 13.730469 C 10.636719 13.730469 11.042969 13.320312 11.042969 12.789062 C 11.042969 12.257812 10.636719 11.875 10.183594 11.875 C 9.734375 11.875 9.332031 12.265625 9.332031 12.792969 C 9.332031 13.320312 9.734375 13.730469 10.183594 13.730469 Z M 15.796875 13.730469 C 16.25 13.730469 16.65625 13.320312 16.65625 12.792969 C 16.65625 12.265625 16.25 11.875 15.796875 11.875 C 15.34375 11.875 14.945312 12.257812 14.945312 12.789062 C 14.945312 13.320312 15.34375 13.730469 15.796875 13.730469 Z M 8.847656 15.945312 L 10.628906 15.945312 C 10.382812 15.53125 10.71875 14.789062 11.238281 14.398438 C 10.96875 14.226562 10.625 14.105469 10.183594 14.105469 C 9.082031 14.105469 8.394531 14.925781 8.394531 15.59375 C 8.394531 15.8125 8.515625 15.945312 8.847656 15.945312 Z M 17.136719 15.945312 C 17.46875 15.945312 17.589844 15.8125 17.589844 15.59375 C 17.589844 14.925781 16.898438 14.105469 15.796875 14.105469 C 15.355469 14.105469 15.015625 14.226562 14.742188 14.398438 C 15.265625 14.789062 15.605469 15.53125 15.351562 15.945312 Z M 11.488281 15.945312 L 14.496094 15.945312 C 14.910156 15.945312 15.050781 15.828125 15.050781 15.613281 C 15.050781 14.980469 14.257812 14.109375 12.996094 14.109375 C 11.726562 14.109375 10.933594 14.980469 10.933594 15.613281 C 10.933594 15.828125 11.070312 15.945312 11.488281 15.945312 Z M 11.488281 15.945312 "/>
</g>
</svg>
