<?xml version="1.0" encoding="UTF-8"?>
<svg xmlns="http://www.w3.org/2000/svg" xmlns:xlink="http://www.w3.org/1999/xlink" width="25pt" height="25pt" viewBox="0 0 25 25" version="1.1">
<g id="surface1">
<path style=" stroke:none;fill-rule:evenodd;fill:rgb(9.803922%,8.235294%,7.843137%);fill-opacity:1;" d="M 24.503906 12.269531 C 24.503906 19.027344 19.027344 24.503906 12.269531 24.503906 C 5.511719 24.503906 0.0390625 19.027344 0.0390625 12.269531 C 0.0390625 5.515625 5.511719 0.0390625 12.269531 0.0390625 C 19.027344 0.0390625 24.503906 5.515625 24.503906 12.269531 Z M 24.503906 12.269531 "/>
<path style=" stroke:none;fill-rule:nonzero;fill:rgb(25.098039%,79.607843%,34.901961%);fill-opacity:1;" d="M 8.488281 12.886719 C 10.585938 12.886719 12.363281 11.132812 12.363281 9.011719 C 12.363281 6.894531 10.605469 5.148438 8.488281 5.148438 C 6.371094 5.148438 4.625 6.894531 4.625 9.011719 C 4.625 11.140625 6.371094 12.886719 8.488281 12.886719 Z M 14.171875 7.59375 L 19.253906 7.59375 C 19.621094 7.59375 19.914062 7.3125 19.914062 6.949219 C 19.914062 6.585938 19.621094 6.308594 19.253906 6.308594 L 14.171875 6.308594 C 13.808594 6.308594 13.523438 6.585938 13.523438 6.949219 C 13.523438 7.3125 13.808594 7.59375 14.171875 7.59375 Z M 7.082031 11.234375 C 6.957031 11.234375 6.832031 11.179688 6.832031 11.023438 C 6.832031 10.957031 6.839844 10.921875 6.847656 10.890625 L 7.328125 9.433594 L 6.074219 8.515625 C 6.003906 8.464844 5.9375 8.378906 5.9375 8.292969 C 5.9375 8.128906 6.050781 8.070312 6.207031 8.070312 L 7.757812 8.070312 L 8.238281 6.597656 C 8.289062 6.453125 8.382812 6.402344 8.488281 6.402344 C 8.59375 6.402344 8.691406 6.453125 8.738281 6.597656 L 9.214844 8.070312 L 10.769531 8.070312 C 10.921875 8.070312 11.039062 8.128906 11.039062 8.292969 C 11.039062 8.378906 10.972656 8.464844 10.90625 8.515625 L 9.648438 9.433594 L 10.125 10.890625 C 10.136719 10.921875 10.15625 10.96875 10.15625 10.996094 C 10.15625 11.140625 10.03125 11.234375 9.898438 11.234375 C 9.839844 11.234375 9.792969 11.234375 9.746094 11.199219 L 8.488281 10.285156 L 7.234375 11.199219 C 7.195312 11.226562 7.136719 11.234375 7.082031 11.234375 Z M 14.171875 11.53125 L 19.253906 11.53125 C 19.621094 11.53125 19.914062 11.246094 19.914062 10.882812 C 19.914062 10.527344 19.621094 10.238281 19.253906 10.238281 L 14.171875 10.238281 C 13.808594 10.238281 13.523438 10.527344 13.523438 10.882812 C 13.523438 11.246094 13.808594 11.53125 14.171875 11.53125 Z M 5.265625 15.464844 L 19.253906 15.464844 C 19.621094 15.464844 19.914062 15.175781 19.914062 14.8125 C 19.914062 14.457031 19.621094 14.171875 19.253906 14.171875 L 5.265625 14.171875 C 4.914062 14.171875 4.625 14.457031 4.625 14.8125 C 4.625 15.175781 4.914062 15.464844 5.265625 15.464844 Z M 5.265625 19.394531 L 19.253906 19.394531 C 19.621094 19.394531 19.914062 19.105469 19.914062 18.742188 C 19.914062 18.390625 19.621094 18.097656 19.253906 18.097656 L 5.265625 18.097656 C 4.914062 18.097656 4.625 18.390625 4.625 18.742188 C 4.625 19.105469 4.914062 19.394531 5.265625 19.394531 Z M 5.265625 19.394531 "/>
<path style=" stroke:none;fill-rule:evenodd;fill:rgb(25.098039%,79.607843%,34.901961%);fill-opacity:1;" d="M 11.824219 8.84375 C 11.824219 7.117188 10.320312 5.71875 8.464844 5.71875 C 6.613281 5.71875 5.109375 7.117188 5.109375 8.84375 C 5.109375 10.574219 6.613281 11.976562 8.464844 11.976562 C 10.320312 11.976562 11.824219 10.574219 11.824219 8.84375 Z M 11.824219 8.84375 "/>
<path style=" stroke:none;fill-rule:nonzero;fill:rgb(9.803922%,8.235294%,7.843137%);fill-opacity:1;" d="M 8.460938 8.902344 C 8.796875 8.902344 9.097656 8.597656 9.097656 8.199219 C 9.097656 7.800781 8.796875 7.515625 8.460938 7.515625 C 8.121094 7.515625 7.820312 7.808594 7.820312 8.203125 C 7.820312 8.597656 8.117188 8.902344 8.460938 8.902344 Z M 6.628906 8.9375 C 6.925781 8.9375 7.1875 8.671875 7.1875 8.328125 C 7.1875 7.980469 6.925781 7.730469 6.628906 7.730469 C 6.335938 7.730469 6.074219 7.984375 6.074219 8.328125 C 6.074219 8.671875 6.335938 8.9375 6.628906 8.9375 Z M 10.285156 8.9375 C 10.578125 8.9375 10.84375 8.671875 10.84375 8.328125 C 10.84375 7.984375 10.578125 7.730469 10.285156 7.730469 C 9.988281 7.730469 9.730469 7.980469 9.730469 8.328125 C 9.730469 8.671875 9.988281 8.9375 10.285156 8.9375 Z M 5.761719 10.382812 L 6.917969 10.382812 C 6.757812 10.113281 6.976562 9.628906 7.316406 9.375 C 7.140625 9.261719 6.917969 9.183594 6.628906 9.183594 C 5.914062 9.183594 5.464844 9.71875 5.464844 10.152344 C 5.464844 10.292969 5.542969 10.382812 5.761719 10.382812 Z M 11.15625 10.382812 C 11.371094 10.382812 11.453125 10.292969 11.453125 10.152344 C 11.453125 9.71875 11 9.183594 10.285156 9.183594 C 9.996094 9.183594 9.777344 9.261719 9.597656 9.375 C 9.9375 9.628906 10.160156 10.113281 9.996094 10.382812 Z M 7.480469 10.382812 L 9.4375 10.382812 C 9.707031 10.382812 9.796875 10.304688 9.796875 10.164062 C 9.796875 9.753906 9.28125 9.1875 8.460938 9.1875 C 7.632812 9.1875 7.117188 9.753906 7.117188 10.164062 C 7.117188 10.304688 7.207031 10.382812 7.480469 10.382812 Z M 7.480469 10.382812 "/>
</g>
</svg>
