<?xml version="1.0" encoding="UTF-8"?>
<svg xmlns="http://www.w3.org/2000/svg" xmlns:xlink="http://www.w3.org/1999/xlink" width="16pt" height="16pt" viewBox="0 0 16 16" version="1.1">
<g id="surface1">
<path style=" stroke:none;fill-rule:evenodd;fill:rgb(9.803922%,8.235294%,7.843137%);fill-opacity:1;" d="M 15.808594 7.914062 C 15.808594 12.277344 12.277344 15.808594 7.914062 15.808594 C 3.554688 15.808594 0.0234375 12.277344 0.0234375 7.914062 C 0.0234375 3.558594 3.554688 0.0234375 7.914062 0.0234375 C 12.277344 0.0234375 15.808594 3.558594 15.808594 7.914062 Z M 15.808594 7.914062 "/>
<path style=" stroke:none;fill-rule:nonzero;fill:rgb(25.098039%,79.607843%,34.901961%);fill-opacity:1;" d="M 5.476562 8.3125 C 6.828125 8.3125 7.976562 7.183594 7.976562 5.8125 C 7.976562 4.449219 6.84375 3.320312 5.476562 3.320312 C 4.109375 3.320312 2.984375 4.449219 2.984375 5.8125 C 2.984375 7.1875 4.109375 8.3125 5.476562 8.3125 Z M 9.144531 4.898438 L 12.421875 4.898438 C 12.660156 4.898438 12.847656 4.71875 12.847656 4.484375 C 12.847656 4.25 12.660156 4.070312 12.421875 4.070312 L 9.144531 4.070312 C 8.910156 4.070312 8.726562 4.25 8.726562 4.484375 C 8.726562 4.71875 8.910156 4.898438 9.144531 4.898438 Z M 4.570312 7.246094 C 4.488281 7.246094 4.40625 7.210938 4.40625 7.113281 C 4.40625 7.070312 4.414062 7.046875 4.417969 7.027344 L 4.726562 6.085938 L 3.917969 5.492188 C 3.875 5.460938 3.832031 5.40625 3.832031 5.351562 C 3.832031 5.246094 3.902344 5.207031 4.003906 5.207031 L 5.003906 5.207031 L 5.316406 4.257812 C 5.347656 4.164062 5.410156 4.128906 5.476562 4.128906 C 5.542969 4.128906 5.605469 4.164062 5.636719 4.257812 L 5.945312 5.207031 L 6.949219 5.207031 C 7.046875 5.207031 7.121094 5.246094 7.121094 5.351562 C 7.121094 5.40625 7.078125 5.460938 7.035156 5.492188 L 6.226562 6.085938 L 6.53125 7.027344 C 6.539062 7.046875 6.550781 7.078125 6.550781 7.09375 C 6.550781 7.1875 6.472656 7.246094 6.386719 7.246094 C 6.347656 7.246094 6.316406 7.246094 6.289062 7.226562 L 5.476562 6.636719 L 4.667969 7.226562 C 4.640625 7.242188 4.605469 7.246094 4.570312 7.246094 Z M 9.144531 7.441406 L 12.421875 7.441406 C 12.660156 7.441406 12.847656 7.253906 12.847656 7.019531 C 12.847656 6.792969 12.660156 6.605469 12.421875 6.605469 L 9.144531 6.605469 C 8.910156 6.605469 8.726562 6.792969 8.726562 7.019531 C 8.726562 7.253906 8.910156 7.441406 9.144531 7.441406 Z M 3.398438 9.976562 L 12.421875 9.976562 C 12.660156 9.976562 12.847656 9.789062 12.847656 9.554688 C 12.847656 9.328125 12.660156 9.144531 12.421875 9.144531 L 3.398438 9.144531 C 3.171875 9.144531 2.984375 9.328125 2.984375 9.554688 C 2.984375 9.789062 3.171875 9.976562 3.398438 9.976562 Z M 3.398438 12.511719 L 12.421875 12.511719 C 12.660156 12.511719 12.847656 12.324219 12.847656 12.089844 C 12.847656 11.863281 12.660156 11.675781 12.421875 11.675781 L 3.398438 11.675781 C 3.171875 11.675781 2.984375 11.863281 2.984375 12.089844 C 2.984375 12.324219 3.171875 12.511719 3.398438 12.511719 Z M 3.398438 12.511719 "/>
<path style=" stroke:none;fill-rule:evenodd;fill:rgb(25.098039%,79.607843%,34.901961%);fill-opacity:1;" d="M 7.628906 5.707031 C 7.628906 4.589844 6.660156 3.691406 5.460938 3.691406 C 4.265625 3.691406 3.296875 4.589844 3.296875 5.707031 C 3.296875 6.820312 4.265625 7.726562 5.460938 7.726562 C 6.660156 7.726562 7.628906 6.820312 7.628906 5.707031 Z M 7.628906 5.707031 "/>
<path style=" stroke:none;fill-rule:nonzero;fill:rgb(9.803922%,8.235294%,7.843137%);fill-opacity:1;" d="M 5.457031 5.742188 C 5.675781 5.742188 5.871094 5.546875 5.871094 5.289062 C 5.871094 5.03125 5.675781 4.847656 5.457031 4.847656 C 5.238281 4.847656 5.046875 5.039062 5.046875 5.292969 C 5.046875 5.546875 5.238281 5.742188 5.457031 5.742188 Z M 4.277344 5.765625 C 4.46875 5.765625 4.636719 5.59375 4.636719 5.371094 C 4.636719 5.148438 4.46875 4.988281 4.277344 4.988281 C 4.085938 4.988281 3.917969 5.152344 3.917969 5.371094 C 3.917969 5.59375 4.085938 5.765625 4.277344 5.765625 Z M 6.636719 5.765625 C 6.824219 5.765625 6.996094 5.59375 6.996094 5.371094 C 6.996094 5.152344 6.824219 4.988281 6.636719 4.988281 C 6.445312 4.988281 6.277344 5.148438 6.277344 5.371094 C 6.277344 5.59375 6.445312 5.765625 6.636719 5.765625 Z M 3.71875 6.699219 L 4.464844 6.699219 C 4.359375 6.523438 4.5 6.210938 4.71875 6.046875 C 4.605469 5.976562 4.464844 5.925781 4.277344 5.925781 C 3.816406 5.925781 3.527344 6.269531 3.527344 6.550781 C 3.527344 6.640625 3.574219 6.699219 3.71875 6.699219 Z M 7.199219 6.699219 C 7.335938 6.699219 7.390625 6.640625 7.390625 6.550781 C 7.390625 6.269531 7.097656 5.925781 6.636719 5.925781 C 6.449219 5.925781 6.308594 5.976562 6.191406 6.046875 C 6.410156 6.210938 6.554688 6.523438 6.449219 6.699219 Z M 4.824219 6.699219 L 6.089844 6.699219 C 6.261719 6.699219 6.320312 6.648438 6.320312 6.558594 C 6.320312 6.292969 5.988281 5.925781 5.457031 5.925781 C 4.925781 5.925781 4.589844 6.292969 4.589844 6.558594 C 4.589844 6.648438 4.648438 6.699219 4.824219 6.699219 Z M 4.824219 6.699219 "/>
</g>
</svg>
