<?xml version="1.0" standalone="no"?>
<!DOCTYPE svg PUBLIC "-//W3C//DTD SVG 20010904//EN"
 "http://www.w3.org/TR/2001/REC-SVG-20010904/DTD/svg10.dtd">
<svg version="1.0" xmlns="http://www.w3.org/2000/svg"
 width="200.000000pt" height="200.000000pt" viewBox="0 0 200.000000 200.000000"
 preserveAspectRatio="xMidYMid meet">

<g transform="translate(0.000000,200.000000) scale(0.100000,-0.100000)"
fill="#000000" stroke="none">
<path d="M885 1994 c-437 -65 -766 -362 -861 -779 -26 -110 -26 -320 0 -430
87 -379 382 -674 761 -761 110 -26 320 -26 430 0 210 48 416 172 547 331 103
123 179 277 214 430 26 110 26 320 0 430 -85 372 -373 666 -741 756 -78 19
-285 33 -350 23z m-49 -504 c56 -24 121 -90 146 -148 24 -57 21 -168 -6 -220
-26 -50 -92 -111 -144 -134 -63 -27 -163 -27 -226 0 -61 27 -127 97 -149 158
-81 229 155 444 379 344z m705 -70 c21 -12 25 -40 7 -58 -17 -17 -419 -17
-436 0 -17 17 -15 45 6 57 23 14 397 14 423 1z m7 -292 c20 -20 14 -48 -14
-58 -34 -13 -390 -13 -415 0 -21 12 -25 40 -7 58 17 17 419 17 436 0z m2 -293
c19 -23 8 -48 -28 -57 -52 -14 -1059 -5 -1073 9 -7 7 -9 22 -5 37 l6 26 544 0
c463 0 545 -2 556 -15z m6 -302 c14 -53 17 -53 -554 -53 -341 0 -530 4 -543
10 -18 10 -26 50 -12 63 3 4 253 7 554 7 l549 0 6 -27z"/>
<path d="M686 1339 c-21 -31 -1 -79 34 -79 21 0 50 31 50 53 0 21 -27 47 -50
47 -10 0 -26 -10 -34 -21z"/>
<path d="M566 1329 c-15 -22 -11 -48 8 -61 39 -27 78 17 51 58 -19 30 -39 31
-59 3z"/>
<path d="M826 1337 c-38 -27 2 -95 42 -71 23 15 27 48 7 68 -20 19 -26 20 -49
3z"/>
<path d="M563 1240 c-26 -11 -57 -55 -48 -70 3 -5 27 -10 53 -10 46 0 47 1 59
37 6 21 11 39 10 40 -9 8 -56 10 -74 3z"/>
<path d="M693 1242 c-33 -10 -63 -39 -63 -62 0 -19 7 -20 89 -20 50 0 92 3 94
8 11 17 -15 54 -48 67 -37 16 -39 16 -72 7z"/>
<path d="M817 1243 c-10 -3 -16 -8 -14 -11 2 -4 10 -22 17 -39 13 -31 18 -33
62 -33 51 0 59 11 38 50 -8 16 -62 42 -79 39 -3 -1 -14 -3 -24 -6z"/>
</g>
</svg>
