<?xml version="1.0" encoding="UTF-8"?>
<svg xmlns="http://www.w3.org/2000/svg" xmlns:xlink="http://www.w3.org/1999/xlink" width="50pt" height="50pt" viewBox="0 0 50 50" version="1.1">
<g id="surface1">
<path style=" stroke:none;fill-rule:evenodd;fill:rgb(9.803922%,8.235294%,7.843137%);fill-opacity:1;" d="M 49.917969 25 C 49.917969 38.761719 38.761719 49.921875 25 49.921875 C 11.234375 49.921875 0.078125 38.761719 0.078125 25 C 0.078125 11.238281 11.234375 0.078125 25 0.078125 C 38.761719 0.078125 49.917969 11.238281 49.917969 25 Z M 49.917969 25 "/>
<path style=" stroke:none;fill-rule:nonzero;fill:rgb(25.098039%,79.607843%,34.901961%);fill-opacity:1;" d="M 17.292969 26.25 C 21.570312 26.25 25.183594 22.675781 25.183594 18.359375 C 25.183594 14.042969 21.609375 10.488281 17.292969 10.488281 C 12.976562 10.488281 9.421875 14.042969 9.421875 18.359375 C 9.421875 22.695312 12.976562 26.25 17.292969 26.25 Z M 28.875 15.46875 L 39.226562 15.46875 C 39.96875 15.46875 40.574219 14.902344 40.574219 14.160156 C 40.574219 13.417969 39.96875 12.851562 39.226562 12.851562 L 28.875 12.851562 C 28.132812 12.851562 27.546875 13.417969 27.546875 14.160156 C 27.546875 14.902344 28.132812 15.46875 28.875 15.46875 Z M 14.421875 22.890625 C 14.167969 22.890625 13.914062 22.773438 13.914062 22.460938 C 13.914062 22.324219 13.933594 22.246094 13.953125 22.1875 L 14.929688 19.21875 L 12.371094 17.34375 C 12.234375 17.246094 12.097656 17.070312 12.097656 16.894531 C 12.097656 16.5625 12.332031 16.445312 12.644531 16.445312 L 15.808594 16.445312 L 16.785156 13.4375 C 16.882812 13.144531 17.078125 13.046875 17.292969 13.046875 C 17.507812 13.046875 17.703125 13.144531 17.800781 13.4375 L 18.777344 16.445312 L 21.941406 16.445312 C 22.253906 16.445312 22.488281 16.5625 22.488281 16.894531 C 22.488281 17.070312 22.351562 17.246094 22.214844 17.34375 L 19.65625 19.21875 L 20.632812 22.1875 C 20.652344 22.246094 20.691406 22.34375 20.691406 22.402344 C 20.691406 22.695312 20.4375 22.890625 20.164062 22.890625 C 20.046875 22.890625 19.949219 22.890625 19.851562 22.8125 L 17.292969 20.957031 L 14.734375 22.8125 C 14.65625 22.871094 14.539062 22.890625 14.421875 22.890625 Z M 28.875 23.496094 L 39.226562 23.496094 C 39.96875 23.496094 40.574219 22.910156 40.574219 22.167969 C 40.574219 21.445312 39.96875 20.859375 39.226562 20.859375 L 28.875 20.859375 C 28.132812 20.859375 27.546875 21.445312 27.546875 22.167969 C 27.546875 22.910156 28.132812 23.496094 28.875 23.496094 Z M 10.730469 31.503906 L 39.226562 31.503906 C 39.96875 31.503906 40.574219 30.917969 40.574219 30.175781 C 40.574219 29.453125 39.96875 28.867188 39.226562 28.867188 L 10.730469 28.867188 C 10.007812 28.867188 9.421875 29.453125 9.421875 30.175781 C 9.421875 30.917969 10.007812 31.503906 10.730469 31.503906 Z M 10.730469 39.511719 L 39.226562 39.511719 C 39.96875 39.511719 40.574219 38.925781 40.574219 38.183594 C 40.574219 37.460938 39.96875 36.875 39.226562 36.875 L 10.730469 36.875 C 10.007812 36.875 9.421875 37.460938 9.421875 38.183594 C 9.421875 38.925781 10.007812 39.511719 10.730469 39.511719 Z M 10.730469 39.511719 "/>
<path style=" stroke:none;fill-rule:evenodd;fill:rgb(25.098039%,79.607843%,34.901961%);fill-opacity:1;" d="M 24.085938 18.019531 C 24.085938 14.5 21.023438 11.644531 17.246094 11.644531 C 13.46875 11.644531 10.410156 14.5 10.410156 18.019531 C 10.410156 21.542969 13.46875 24.398438 17.246094 24.398438 C 21.023438 24.398438 24.085938 21.542969 24.085938 18.019531 Z M 24.085938 18.019531 "/>
<path style=" stroke:none;fill-rule:nonzero;fill:rgb(9.803922%,8.235294%,7.843137%);fill-opacity:1;" d="M 17.234375 18.136719 C 17.921875 18.136719 18.53125 17.515625 18.53125 16.703125 C 18.53125 15.894531 17.921875 15.308594 17.234375 15.308594 C 16.542969 15.308594 15.929688 15.910156 15.929688 16.710938 C 15.929688 17.515625 16.539062 18.136719 17.234375 18.136719 Z M 13.507812 18.210938 C 14.109375 18.210938 14.644531 17.667969 14.644531 16.960938 C 14.644531 16.257812 14.109375 15.75 13.507812 15.75 C 12.910156 15.75 12.375 16.269531 12.375 16.96875 C 12.375 17.667969 12.910156 18.210938 13.507812 18.210938 Z M 20.949219 18.210938 C 21.550781 18.210938 22.089844 17.667969 22.089844 16.96875 C 22.089844 16.269531 21.550781 15.75 20.949219 15.75 C 20.351562 15.75 19.820312 16.257812 19.820312 16.960938 C 19.820312 17.667969 20.351562 18.210938 20.949219 18.210938 Z M 11.734375 21.148438 L 14.097656 21.148438 C 13.769531 20.597656 14.21875 19.617188 14.90625 19.097656 C 14.546875 18.871094 14.09375 18.707031 13.507812 18.707031 C 12.046875 18.707031 11.132812 19.796875 11.132812 20.683594 C 11.132812 20.972656 11.292969 21.148438 11.734375 21.148438 Z M 22.726562 21.148438 C 23.167969 21.148438 23.328125 20.972656 23.328125 20.683594 C 23.328125 19.796875 22.414062 18.707031 20.953125 18.707031 C 20.367188 18.707031 19.914062 18.871094 19.550781 19.097656 C 20.246094 19.617188 20.695312 20.597656 20.363281 21.148438 Z M 15.238281 21.148438 L 19.226562 21.148438 C 19.777344 21.148438 19.960938 20.992188 19.960938 20.707031 C 19.960938 19.871094 18.910156 18.714844 17.234375 18.714844 C 15.550781 18.714844 14.503906 19.871094 14.503906 20.707031 C 14.503906 20.992188 14.683594 21.148438 15.238281 21.148438 Z M 15.238281 21.148438 "/>
</g>
</svg>
